<svg xmlns="http://www.w3.org/2000/svg" width="560" height="430" viewBox="0 0 560 430" fill="none">
  <defs><linearGradient id="paper" x1="130" y1="65" x2="365" y2="350" gradientUnits="userSpaceOnUse"><stop stop-color="#fff" stop-opacity=".18"/><stop offset="1" stop-color="#fff" stop-opacity=".06"/></linearGradient></defs>
  <!-- inspection document -->
  <g stroke-linecap="round" stroke-linejoin="round">
    <rect x="119" y="53" width="250" height="306" rx="22" fill="url(#paper)" stroke="#fff" stroke-opacity=".55" stroke-width="2.5"/>
    <path d="M192 53V31h104v22" stroke="#F2C46D" stroke-width="3"/>
    <rect x="169" y="30" width="149" height="44" rx="13" fill="#316627" stroke="#D7EDA7" stroke-width="2.5"/>
    <g stroke="#D7EDA7" stroke-width="3">
      <path d="m157 131 10 10 18-22M157 190l10 10 18-22M157 249l10 10 18-22"/>
      <path d="M207 130h116M207 189h87M207 248h109" opacity=".8"/>
      <path d="M207 147h78M207 206h104M207 265h69" opacity=".45"/>
    </g>
  </g>

  <!-- product package -->
  <g transform="translate(330 210)" stroke="#F2C46D" stroke-width="2.8" stroke-linejoin="round">
    <path d="m0 45 78-40 82 38-79 42L0 45Z" fill="#D58B2B" fill-opacity=".15"/>
    <path d="M0 45v91l81 42V85L0 45ZM160 43v92l-79 43V85l79-42Z" fill="#fff" fill-opacity=".06"/>
    <path d="m39 25 82 40M81 85 78 5"/>
    <path d="m112 118 11 11 23-27" stroke="#D7EDA7" stroke-width="5" stroke-linecap="round"/>
  </g>

  <!-- magnifier -->
  <g transform="translate(48 222) rotate(-15 74 74)" stroke="#fff" stroke-width="5" stroke-linecap="round">
    <circle cx="70" cy="70" r="51" fill="#fff" fill-opacity=".035"/>
    <path d="m108 108 62 62"/>
    <path d="m45 71 17 17 34-40" stroke="#D7EDA7"/>
  </g>

  <!-- connected verification route -->
  <path d="M74 116C52 63 114 13 166 51M361 91c77-35 142 4 128 76M447 368c-37 38-89 38-128 5" stroke="#F2C46D" stroke-width="2.5" stroke-linecap="round" stroke-dasharray="4 11"/>
  <g fill="#D7EDA7"><circle cx="74" cy="116" r="6"/><circle cx="166" cy="51" r="6"/><circle cx="361" cy="91" r="6"/><circle cx="489" cy="167" r="6"/><circle cx="447" cy="368" r="6"/><circle cx="319" cy="373" r="6"/></g>

  <!-- small quality badges -->
  <g transform="translate(401 78)"><circle cx="45" cy="45" r="42" fill="#fff" fill-opacity=".08" stroke="#fff" stroke-opacity=".45" stroke-width="2"/><path d="M45 18c13 10 25 14 36 15v22c0 21-12 35-36 44C21 90 9 76 9 55V33c11-1 23-5 36-15Z" stroke="#fff" stroke-width="3"/><path d="m27 54 12 12 24-27" stroke="#D7EDA7" stroke-width="5" stroke-linecap="round" stroke-linejoin="round"/></g>
</svg>
